<svg xmlns="http://www.w3.org/2000/svg" width="45.016" height="45.017"><path d="M39.909 5.107A17.385 17.385 0 0027.579 0a17.381 17.381 0 00-12.33 5.107c-5.737 5.737-6.621 14.469-2.691 21.152L1.341 35.682c-1.691 1.42-1.796 3.839-.234 5.4l2.828 2.828c1.562 1.562 3.98 1.457 5.401-.234l9.423-11.217a17.386 17.386 0 0021.15-2.691c6.81-6.811 6.81-17.852 0-24.661zm-5.658 19.004a9.37 9.37 0 01-6.673 2.764 9.376 9.376 0 01-6.673-2.764c-3.68-3.68-3.68-9.667 0-13.347A9.38 9.38 0 0127.579 8c2.521 0 4.892.982 6.673 2.764 3.68 3.68 3.68 9.667-.001 13.347z"/></svg>